<svg width="22" height="22" viewBox="0 0 22 22" fill="none" xmlns="http://www.w3.org/2000/svg">
  <path fill-rule="evenodd" clip-rule="evenodd" d="M8.5 3C7.67157 3 7 3.67157 7 4.5V5H4.5C3.67157 5 3 5.67157 3 6.5V17.5C3 18.3284 3.67157 19 4.5 19H17.5C18.3284 19 19 18.3284 19 17.5V6.5C19 5.67157 18.3284 5 17.5 5H15V4.5C15 3.67157 14.3284 3 13.5 3H8.5ZM8.5 4.5H13.5V6.5H8.5V4.5ZM6.5 10.5C6.5 9.94772 6.94772 9.5 7.5 9.5H14.5C15.0523 9.5 15.5 9.94772 15.5 10.5C15.5 11.0523 15.0523 11.5 14.5 11.5H7.5C6.94772 11.5 6.5 11.0523 6.5 10.5ZM6.5 14.5C6.5 13.9477 6.94772 13.5 7.5 13.5H10.5C11.0523 13.5 11.5 13.9477 11.5 14.5C11.5 15.0523 11.0523 15.5 10.5 15.5H7.5C6.94772 15.5 6.5 15.0523 6.5 14.5Z" fill="black"/>
</svg>
