<svg width="22" height="22" viewBox="0 0 22 22" fill="none" xmlns="http://www.w3.org/2000/svg">
  <path fill-rule="evenodd" clip-rule="evenodd" d="M8.5 2C7.67157 2 7 2.67157 7 3.5V4H5.5C4.67157 4 4 4.67157 4 5.5V18.5C4 19.3284 4.67157 20 5.5 20H16.5C17.3284 20 18 19.3284 18 18.5V5.5C18 4.67157 17.3284 4 16.5 4H15V3.5C15 2.67157 14.3284 2 13.5 2H8.5ZM8.5 3.5H13.5V5.5H8.5V3.5ZM7 10.5C7 10.0858 7.33579 9.75 7.75 9.75H14.25C14.6642 9.75 15 10.0858 15 10.5C15 10.9142 14.6642 11.25 14.25 11.25H7.75C7.33579 11.25 7 10.9142 7 10.5ZM7 14.5C7 14.0858 7.33579 13.75 7.75 13.75H11.25C11.6642 13.75 12 14.0858 12 14.5C12 14.9142 11.6642 15.25 11.25 15.25H7.75C7.33579 15.25 7 14.9142 7 14.5Z" fill="black"/>
</svg>
