<svg width="22" height="22" viewBox="0 0 22 22" fill="none" xmlns="http://www.w3.org/2000/svg">
  <path fill-rule="evenodd" clip-rule="evenodd" d="M7.5 1.5C7.5 0.947715 7.94772 0.5 8.5 0.5H13.5C14.0523 0.5 14.5 0.947715 14.5 1.5H16.5C17.6046 1.5 18.5 2.39543 18.5 3.5V18.5C18.5 19.6046 17.6046 20.5 16.5 20.5H5.5C4.39543 20.5 3.5 19.6046 3.5 18.5V3.5C3.5 2.39543 4.39543 1.5 5.5 1.5H7.5ZM8.5 2.5V1.5H13.5V2.5H8.5ZM5.5 3.5V18.5H16.5V3.5H5.5Z" fill="black"/>
  <rect x="6.5" y="6.5" width="9" height="1.5" rx="0.75" fill="black"/>
  <rect x="6.5" y="10.5" width="9" height="1.5" rx="0.75" fill="black"/>
  <rect x="6.5" y="14.5" width="5" height="1.5" rx="0.75" fill="black"/>
</svg>
