<svg width="22" height="22" viewBox="0 0 22 22" fill="none" xmlns="http://www.w3.org/2000/svg">
  <path fill-rule="evenodd" clip-rule="evenodd" d="M8.5 2C7.67157 2 7 2.67157 7 3.5V4H5.5C4.67157 4 4 4.67157 4 5.5V18.5C4 19.3284 4.67157 20 5.5 20H16.5C17.3284 20 18 19.3284 18 18.5V5.5C18 4.67157 17.3284 4 16.5 4H15V3.5C15 2.67157 14.3284 2 13.5 2H8.5ZM8.5 3.5H13.5V5.5H8.5V3.5ZM7 10.5C7 9.94772 7.44772 9.5 8 9.5H14C14.5523 9.5 15 9.94772 15 10.5C15 11.0523 14.5523 11.5 14 11.5H8C7.44772 11.5 7 11.0523 7 10.5ZM7 14.5C7 13.9477 7.44772 13.5 8 13.5H11C11.5523 13.5 12 13.9477 12 14.5C12 15.0523 11.5523 15.5 11 15.5H8C7.44772 15.5 7 15.0523 7 14.5Z" fill="black"/>
</svg>
